<?xml version="1.0" encoding="utf-8"?>
<!-- Generator: Adobe Illustrator 17.0.0, SVG Export Plug-In . SVG Version: 6.00 Build 0)  -->
<!DOCTYPE svg PUBLIC "-//W3C//DTD SVG 1.1//EN" "http://www.w3.org/Graphics/SVG/1.1/DTD/svg11.dtd">
<svg version="1.1" id="图层_1" xmlns="http://www.w3.org/2000/svg" xmlns:xlink="http://www.w3.org/1999/xlink" x="0px" y="0px"
	 width="157.162px" height="51.192px" viewBox="0 0 157.162 51.192" enable-background="new 0 0 157.162 51.192"
	 xml:space="preserve">
<path fill="#FFFFFF" d="M155.992,43.383c0,3.666-2.972,6.638-6.638,6.638H7.809c-3.666,0-6.638-2.972-6.638-6.638V7.809
	c0-3.666,2.972-6.638,6.638-6.638h141.545c3.666,0,6.638,2.972,6.638,6.638V43.383z"/>
<path d="M149.354,51.192H7.809C3.503,51.192,0,47.689,0,43.383V7.809C0,3.503,3.503,0,7.809,0h9.904
	c0.647,0,1.171,0.524,1.171,1.171s-0.524,1.171-1.171,1.171H7.809c-3.014,0-5.467,2.452-5.467,5.467v35.575
	c0,3.015,2.453,5.467,5.467,5.467h141.545c3.015,0,5.467-2.452,5.467-5.467V7.809c0-3.015-2.452-5.467-5.467-5.467h-13.005
	c-0.646,0-1.171-0.524-1.171-1.171S135.702,0,136.348,0h13.005c4.306,0,7.809,3.503,7.809,7.809v35.575
	C157.162,47.689,153.66,51.192,149.354,51.192z"/>
<path d="M129.831,2.342h-12.794c-0.646,0-1.171-0.524-1.171-1.171S116.391,0,117.037,0h12.794c0.646,0,1.171,0.524,1.171,1.171
	S130.477,2.342,129.831,2.342z"/>
<path d="M110.783,2.342H46.276c-0.647,0-1.171-0.524-1.171-1.171S45.63,0,46.276,0h64.506c0.646,0,1.171,0.524,1.171,1.171
	S111.429,2.342,110.783,2.342z"/>
<path d="M38.907,2.342H24.433c-0.647,0-1.171-0.524-1.171-1.171S23.786,0,24.433,0h14.474c0.647,0,1.171,0.524,1.171,1.171
	S39.554,2.342,38.907,2.342z"/>
<path d="M141.395,46.319c-0.009,0-0.016,0-0.02,0H67.425c-0.431,0-0.781-0.349-0.781-0.781s0.35-0.781,0.781-0.781h73.959
	c0.014-0.018,3.508-0.002,5.946-2.428c1.622-1.613,2.445-3.948,2.445-6.939c0-0.431,0.349-0.781,0.781-0.781
	c0.431,0,0.781,0.349,0.781,0.781c0,3.431-0.982,6.142-2.919,8.06C145.586,46.252,141.746,46.319,141.395,46.319z"/>
<path d="M150.555,32.464c-0.431,0-0.781-0.349-0.781-0.781V21.536c0-0.431,0.349-0.781,0.781-0.781c0.431,0,0.781,0.349,0.781,0.781
	v10.147C151.336,32.115,150.986,32.464,150.555,32.464z"/>
<text transform="matrix(1 0 0 1 43.9348 30.5105)" font-family="'MFTongXin_Noncommercial-Regular'" font-size="24.2433" x="10%" >10</text>
</svg>
