<?xml version="1.0" encoding="utf-8"?>
<!-- Generator: Adobe Illustrator 17.0.0, SVG Export Plug-In . SVG Version: 6.00 Build 0)  -->
<!DOCTYPE svg PUBLIC "-//W3C//DTD SVG 1.1//EN" "http://www.w3.org/Graphics/SVG/1.1/DTD/svg11.dtd">
<svg version="1.1" id="图层_1" xmlns="http://www.w3.org/2000/svg" xmlns:xlink="http://www.w3.org/1999/xlink" x="0px" y="0px"
	 width="81.761px" height="83.711px" viewBox="0 0 81.761 83.711" enable-background="new 0 0 81.761 83.711" xml:space="preserve">
<circle fill="#FFFFFF" cx="40.88" cy="42.83" r="39.56"/>
<path d="M40.88,83.711C18.339,83.711,0,65.372,0,42.83C0,30.898,5.195,19.592,14.253,11.81c0.628-0.539,1.576-0.47,2.115,0.16
	c0.54,0.629,0.468,1.575-0.16,2.115C7.814,21.296,3,31.774,3,42.83c0,20.888,16.993,37.881,37.88,37.881
	c20.888,0,37.881-16.993,37.881-37.881S61.768,4.949,40.88,4.949c-0.829,0-1.5-0.672-1.5-1.5s0.671-1.5,1.5-1.5
	c22.542,0,40.881,18.339,40.881,40.881S63.422,83.711,40.88,83.711z"/>
<g>
	<path d="M62.686,36.675H19.075c-1.933,0-3.5-1.567-3.5-3.5s1.567-3.5,3.5-3.5h43.611c1.933,0,3.5,1.567,3.5,3.5
		S64.619,36.675,62.686,36.675z"/>
	<path d="M62.686,55.986H19.075c-1.933,0-3.5-1.567-3.5-3.5s1.567-3.5,3.5-3.5h43.611c1.933,0,3.5,1.567,3.5,3.5
		S64.619,55.986,62.686,55.986z"/>
</g>
<path d="M20.465,10.44c-0.488,0-0.967-0.237-1.255-0.676c-0.455-0.692-0.263-1.623,0.43-2.078c0.292-0.191,7.257-4.716,15.548-5.522
	c0.826-0.088,1.558,0.522,1.639,1.348c0.08,0.825-0.523,1.559-1.348,1.639c-7.562,0.735-14.126,5.001-14.192,5.044
	C21.033,10.36,20.748,10.44,20.465,10.44z"/>
</svg>
