<?xml version="1.0" encoding="utf-8"?>
<!-- Generator: Adobe Illustrator 17.0.0, SVG Export Plug-In . SVG Version: 6.00 Build 0)  -->
<!DOCTYPE svg PUBLIC "-//W3C//DTD SVG 1.1//EN" "http://www.w3.org/Graphics/SVG/1.1/DTD/svg11.dtd">
<svg version="1.1" id="图层_1" xmlns="http://www.w3.org/2000/svg" xmlns:xlink="http://www.w3.org/1999/xlink" x="0px" y="0px"
	 width="157.162px" height="51.192px" viewBox="0 0 157.162 51.192" enable-background="new 0 0 157.162 51.192"
	 xml:space="preserve">
<path fill="#FFFFFF" d="M156.302,43.457c0,3.666-2.972,6.638-6.638,6.638H8.119c-3.666,0-6.638-2.972-6.638-6.638V7.883
	c0-3.666,2.972-6.638,6.638-6.638h141.545c3.666,0,6.638,2.972,6.638,6.638V43.457z"/>
<path d="M149.664,51.266H8.119c-4.306,0-7.809-3.503-7.809-7.809V7.883c0-4.306,3.503-7.809,7.809-7.809h9.904
	c0.647,0,1.171,0.524,1.171,1.171s-0.524,1.171-1.171,1.171H8.119c-3.014,0-5.467,2.452-5.467,5.467v35.575
	c0,3.015,2.453,5.467,5.467,5.467h141.545c3.015,0,5.467-2.452,5.467-5.467V7.883c0-3.015-2.452-5.467-5.467-5.467h-13.005
	c-0.646,0-1.171-0.524-1.171-1.171s0.524-1.171,1.171-1.171h13.005c4.306,0,7.809,3.503,7.809,7.809v35.575
	C157.473,47.763,153.97,51.266,149.664,51.266z"/>
<path d="M130.141,2.416h-12.794c-0.646,0-1.171-0.524-1.171-1.171s0.524-1.171,1.171-1.171h12.794c0.646,0,1.171,0.524,1.171,1.171
	S130.788,2.416,130.141,2.416z"/>
<path d="M111.093,2.416H46.587c-0.647,0-1.171-0.524-1.171-1.171s0.524-1.171,1.171-1.171h64.506c0.646,0,1.171,0.524,1.171,1.171
	S111.739,2.416,111.093,2.416z"/>
<path d="M39.217,2.416H24.743c-0.647,0-1.171-0.524-1.171-1.171s0.524-1.171,1.171-1.171h14.474c0.647,0,1.171,0.524,1.171,1.171
	S39.864,2.416,39.217,2.416z"/>
<path d="M141.706,46.393c-0.009,0-0.016,0-0.02,0H67.735c-0.431,0-0.781-0.349-0.781-0.781s0.35-0.781,0.781-0.781h73.959
	c0.014-0.018,3.508-0.002,5.946-2.428c1.622-1.613,2.445-3.948,2.445-6.939c0-0.431,0.349-0.781,0.781-0.781
	c0.431,0,0.781,0.349,0.781,0.781c0,3.431-0.982,6.142-2.919,8.06C145.897,46.326,142.056,46.393,141.706,46.393z"/>
<path d="M150.865,32.538c-0.431,0-0.781-0.349-0.781-0.781V21.61c0-0.431,0.349-0.781,0.781-0.781c0.431,0,0.781,0.349,0.781,0.781
	v10.147C151.646,32.189,151.297,32.538,150.865,32.538z"/>
<text transform="matrix(1 0 0 1 44.2452 30.5845)" font-family="'MFTongXin_Noncommercial-Regular'" font-size="24.2433">奖品池</text>
</svg>
